<svg xmlns="http://www.w3.org/2000/svg" xmlns:xlink="http://www.w3.org/1999/xlink" viewBox="0 0 110.93 32.15"><defs><style>.cls-1,.cls-3,.cls-5{fill:none;}.cls-2{fill:#fff;stroke-width:0.5px;}.cls-2,.cls-3,.cls-5{stroke:#fff;stroke-miterlimit:10;}.cls-3{stroke-linecap:round;}.cls-4{clip-path:url(#clip-path);}</style><clipPath id="clip-path"><rect class="cls-1" x="10.72" y="10.98" width="5.88" height="12.44"/></clipPath></defs><g id="Слой_2" data-name="Слой 2"><g id="Слой_1-2" data-name="Слой 1"><path class="cls-2" d="M25.49,11.4l-1.28,3.46h-.78l3.67-10H28l3.83,10H31L29.7,11.4Zm4-.71c-1.12-3-1.69-4.41-1.89-5.08h0c-.25.76-.89,2.53-1.79,5.08Z"/><path class="cls-2" d="M34.41,10.19v4.67h-.79v-10h3.59c2,0,3,1,3,2.63a2.25,2.25,0,0,1-1.87,2.34c1,.24,1.72.92,1.72,2.62v.38a6.52,6.52,0,0,0,.13,2h-.79a6.55,6.55,0,0,1-.14-2.08v-.26c0-1.65-.49-2.33-2.41-2.33Zm0-.72h2.41c1.76,0,2.57-.65,2.57-2S38.59,5.57,37,5.57H34.41Z"/><path class="cls-2" d="M50.14,12.19A3.65,3.65,0,0,1,46.38,15C43.51,15,42,12.69,42,9.87s1.49-5.16,4.41-5.16a3.5,3.5,0,0,1,3.76,2.88h-.77a2.9,2.9,0,0,0-3-2.16c-2.48,0-3.53,2.27-3.53,4.43s1,4.4,3.59,4.4a2.93,2.93,0,0,0,3-2.07Z"/><path class="cls-2" d="M54.41,5.57H51.05V4.86h7.52v.71H55.2v9.29h-.79Z"/><path class="cls-2" d="M60.83,4.86v10h-.77v-10Z"/><path class="cls-2" d="M71.18,12.19A3.65,3.65,0,0,1,67.42,15C64.55,15,63,12.69,63,9.87s1.49-5.16,4.4-5.16a3.5,3.5,0,0,1,3.76,2.88h-.77a2.89,2.89,0,0,0-3-2.16c-2.49,0-3.53,2.27-3.53,4.43s1,4.4,3.59,4.4a2.93,2.93,0,0,0,3-2.07Z"/><path class="cls-2" d="M24.46,17.92h.77v5.21c.8-.78,3.66-3.46,5.45-5.21h1l-4.49,4.26L32,27.93H31l-4.35-5.25-1.43,1.26v4h-.77Z"/><path class="cls-2" d="M33.39,27.93v-10h1.14c1.56,2.4,5.22,8,5.85,9.08h0c-.09-1.44-.08-2.92-.08-4.55V17.92h.79v10H40.05c-1.48-2.32-5.2-8.13-5.92-9.24h0c.07,1.32.06,2.78.06,4.59v4.65Z"/><path class="cls-2" d="M52.32,22.85c0,2.74-1.46,5.22-4.55,5.22-2.82,0-4.46-2.27-4.46-5.14s1.58-5.15,4.56-5.15C50.61,17.78,52.32,19.94,52.32,22.85Zm-8.18,0c0,2.31,1.27,4.48,3.67,4.48,2.59,0,3.68-2.12,3.68-4.49s-1.23-4.38-3.65-4.38C45.27,18.49,44.14,20.62,44.14,22.88Z"/><path class="cls-2" d="M56.26,27.93l-2.78-10h.8c.68,2.4,2.19,7.94,2.42,9.11h0c.19-.93,1.83-6.46,2.54-9.11h.85c.66,2.45,2.26,8.32,2.42,9.1h0c.32-1.42,2-6.71,2.68-9.1H66l-3.06,10h-.88c-.66-2.36-2.22-8.15-2.39-9h0c-.26,1.3-1.81,6.52-2.52,9Z"/><path class="cls-2" d="M67.79,17.92h.77v9.3h5.38l-.15.71h-6Z"/><path class="cls-2" d="M81.35,23h-5.1v4.21h5.59l-.11.71H75.48v-10h6.13v.72H76.25V22.3h5.1Z"/><path class="cls-2" d="M83.81,17.92h3.32c2.74,0,4.64,1.92,4.64,4.92s-1.85,5.09-4.66,5.09h-3.3Zm.77,9.3H87c2.64,0,4-1.86,4-4.34,0-2.2-1.18-4.24-4-4.24H84.58Z"/><path class="cls-2" d="M101.69,27.93h-.64a7,7,0,0,1-.1-1.6A3.24,3.24,0,0,1,97.72,28c-2.88,0-4.35-2.18-4.35-5s1.57-5.23,4.51-5.23a3.59,3.59,0,0,1,3.9,3H101a3,3,0,0,0-3.16-2.26c-2.5,0-3.65,2-3.65,4.48,0,2.29,1.1,4.36,3.55,4.36s3.2-1.63,3.2-3.85v-.11H97.72v-.72h4Z"/><path class="cls-2" d="M110.15,23h-5.1v4.21h5.59l-.12.71h-6.24v-10h6.13v.72h-5.36V22.3h5.1Z"/><line class="cls-3" x1="16.08" y1="31.65" x2="16.08" y2="20.76"/><line class="cls-3" x1="16.08" y1="11.76" x2="16.08" y2="0.5"/><line class="cls-3" x1="0.5" y1="16.08" x2="11.64" y2="16.08"/><line class="cls-3" x1="4.96" y1="27.35" x2="12.84" y2="19.48"/><line class="cls-3" x1="4.96" y1="4.8" x2="13.02" y2="12.85"/><path class="cls-3" d="M16.08,26.41,11,30.06a.31.31,0,0,1-.48-.2L9.28,23,2.5,22.16a.28.28,0,0,1-.2-.43l3.75-5.65L1.64,10.47a.25.25,0,0,1,.16-.38L8.67,8.5,9.83,2.22a.61.61,0,0,1,.9-.38l5.35,3.9"/><g class="cls-4"><circle class="cls-5" cx="16.08" cy="16.08" r="4.21"/></g></g></g></svg>